HIERARCHY
ROOT Hips
{
	OFFSET 0.000000 0.000000 0.000000
	CHANNELS 6 Xposition Yposition Zposition Xrotation Yrotation Zrotation
	JOINT Spine
	{
		OFFSET 0.000000 0.044490 0.066735
		CHANNELS 3 Xrotation Yrotation Zrotation
		JOINT Spine1
		{
			OFFSET 0.000000 0.015451 0.087628
			CHANNELS 3 Xrotation Yrotation Zrotation
			JOINT Spine2
			{
				OFFSET 0.000000 0.007755 0.088641
				CHANNELS 3 Xrotation Yrotation Zrotation
				JOINT Spine3
				{
					OFFSET 0.000000 0.000000 0.088980
					CHANNELS 3 Xrotation Yrotation Zrotation
					JOINT Neck
					{
						OFFSET 0.000000 -0.033367 0.233572
						CHANNELS 3 Xrotation Yrotation Zrotation
						JOINT Head
						{
							OFFSET 0.000000 -0.021245 0.120488
							CHANNELS 3 Xrotation Yrotation Zrotation
							End Site
							{
								OFFSET 0.000000 0.000000 0.000000
							}
						}
					}
					JOINT RightShoulder
					{
						OFFSET -0.026917 -0.044862 0.145355
						CHANNELS 3 Xrotation Yrotation Zrotation
						JOINT RightArm
						{
							OFFSET -0.133690 0.000000 0.000000
							CHANNELS 3 Xrotation Yrotation Zrotation
							JOINT RightForeArm
							{
								OFFSET -0.257725 0.000000 0.000000
								CHANNELS 3 Xrotation Yrotation Zrotation
								JOINT RightHand
								{
									OFFSET -0.216749 0.000000 0.000000
									CHANNELS 3 Xrotation Yrotation Zrotation
									JOINT RightHandEnd
									{
										OFFSET -0.062518 0.000000 0.000000
										CHANNELS 3 Xrotation Yrotation Zrotation
										End Site
										{
											OFFSET 0.000000 0.000000 0.000000
										}
									}
									JOINT RightHandThumb1
									{
										OFFSET -0.025007 -0.041679 -0.016672
										CHANNELS 3 Xrotation Yrotation Zrotation
										End Site
										{
											OFFSET 0.000000 0.000000 0.000000
										}
									}
								}
							}
						}
					}
					JOINT LeftShoulder
					{
						OFFSET 0.026917 -0.044862 0.145355
						CHANNELS 3 Xrotation Yrotation Zrotation
						JOINT LeftArm
						{
							OFFSET 0.133690 0.000000 0.000000
							CHANNELS 3 Xrotation Yrotation Zrotation
							JOINT LeftForeArm
							{
								OFFSET 0.257725 0.000000 0.000000
								CHANNELS 3 Xrotation Yrotation Zrotation
								JOINT LeftHand
								{
									OFFSET 0.216749 0.000000 0.000000
									CHANNELS 3 Xrotation Yrotation Zrotation
									JOINT LeftHandEnd
									{
										OFFSET 0.062518 0.000000 0.000000
										CHANNELS 3 Xrotation Yrotation Zrotation
										End Site
										{
											OFFSET 0.000000 0.000000 0.000000
										}
									}
									JOINT LeftHandThumb1
									{
										OFFSET 0.025007 -0.041679 -0.016672
										CHANNELS 3 Xrotation Yrotation Zrotation
										End Site
										{
											OFFSET 0.000000 0.000000 0.000000
										}
									}
								}
							}
						}
					}
				}
			}
		}
	}
	JOINT RightUpLeg
	{
		OFFSET -0.079855 0.000000 -0.023329
		CHANNELS 3 Xrotation Yrotation Zrotation
		JOINT RightLeg
		{
			OFFSET 0.000000 0.000000 -0.366572
			CHANNELS 3 Xrotation Yrotation Zrotation
			JOINT RightFoot
			{
				OFFSET 0.000000 0.000000 -0.363650
				CHANNELS 3 Xrotation Yrotation Zrotation
				JOINT RightToeBase
				{
					OFFSET 0.000000 -0.114715 -0.041753
					CHANNELS 3 Xrotation Yrotation Zrotation
					End Site
					{
						OFFSET 0.000000 0.000000 0.000000
					}
				}
			}
		}
	}
	JOINT LeftUpLeg
	{
		OFFSET 0.079855 0.000000 -0.023329
		CHANNELS 3 Xrotation Yrotation Zrotation
		JOINT LeftLeg
		{
			OFFSET 0.000000 0.000000 -0.366572
			CHANNELS 3 Xrotation Yrotation Zrotation
			JOINT LeftFoot
			{
				OFFSET 0.000000 0.000000 -0.363650
				CHANNELS 3 Xrotation Yrotation Zrotation
				JOINT LeftToeBase
				{
					OFFSET 0.000000 -0.114715 -0.041753
					CHANNELS 3 Xrotation Yrotation Zrotation
					End Site
					{
						OFFSET 0.000000 0.000000 0.000000
					}
				}
			}
		}
	}
}
MOTION
Frames: 14
Frame Time: 0.033333
0.151204 -0.445714 0.795571 1.179400 -6.056700 -94.739300 1.453900 -1.710400 0.785400 1.247400 -0.270300 0.105000 1.170900 2.256200 0.152900 0.361200 0.736000 -0.827900 -14.768300 -0.978800 -0.306000 -13.758400 -0.403400 -1.992300 12.876300 -3.847900 4.914900 7.946800 -29.910400 32.063400 -0.000100 0.000100 104.650500 77.319000 8.125700 -28.227100 0.000000 0.000000 0.000000 0.000000 0.000000 0.000000 2.937000 6.607400 -8.764700 20.167900 44.879200 -23.241000 -0.000100 -0.000100 -107.510800 77.098900 -26.110600 17.723200 0.000000 0.000000 0.000000 0.000000 0.000000 0.000000 2.580500 -0.646800 -11.856000 26.140100 0.000000 0.000000 -8.117200 -7.772100 -7.064800 -26.382800 0.000000 0.000000 -24.606100 -2.404200 20.716900 19.495800 0.000000 0.000000 -3.790600 -0.194100 4.974300 -24.220600 0.000000 0.000000 
0.155077 -0.442219 0.795355 1.629800 -5.762500 -93.604900 1.557400 -1.955700 0.861900 1.246700 -0.369600 0.121300 1.324600 1.901900 0.312000 0.416500 0.618300 -0.596000 -14.527400 -0.356600 -0.752400 -13.662200 -0.434200 -2.708100 12.614100 -5.540200 6.361800 8.503400 -30.090800 35.984900 0.000000 0.000100 101.312900 76.414000 9.510600 -28.830000 0.000000 0.000000 0.000000 0.000000 0.000000 0.000000 2.718600 6.500300 -9.393700 14.549400 42.386400 -16.147600 -0.000100 -0.000100 -108.398300 72.701700 -25.696700 15.835500 0.000000 0.000000 0.000000 0.000000 0.000000 0.000000 2.781300 -1.217800 -13.538000 26.148300 0.000000 0.000000 -8.174200 -7.309300 -6.145000 -26.262500 0.000000 0.000000 -24.963800 -2.733300 18.021100 24.987100 0.000000 0.000000 -6.408700 -1.834400 7.932800 -23.991500 0.000000 0.000000 
0.155240 -0.440304 0.795289 1.879700 -5.635000 -93.416700 1.334600 -2.061000 0.870000 1.042100 -0.490000 0.135800 1.598300 1.447900 0.964200 0.507800 0.432600 -0.169800 -14.463900 0.369200 -0.868100 -13.051400 -0.397900 -3.468200 12.314600 -6.900200 8.105700 9.095500 -30.502700 39.660200 0.000000 0.000100 97.629900 75.260500 11.444900 -28.989000 0.000000 0.000000 0.000000 0.000000 0.000000 0.000000 2.536800 6.538600 -9.687400 9.670100 39.700600 -10.190400 -0.000100 -0.000100 -109.333200 66.391600 -25.097600 13.909700 0.000000 0.000000 0.000000 0.000000 0.000000 0.000000 2.668500 -1.387100 -14.242500 26.642200 0.000000 0.000000 -7.434100 -6.943000 -5.414000 -27.506100 0.000000 0.000000 -24.223800 -2.831600 16.043400 28.867100 0.000000 0.000000 -8.923100 -2.031400 8.919700 -24.128800 0.000000 0.000000 
0.151773 -0.439905 0.795548 1.892900 -5.656700 -93.953700 0.889000 -2.040100 0.774600 0.673400 -0.669600 0.156700 1.921900 1.079100 1.917100 0.616100 0.233900 0.343500 -14.487300 1.019300 -0.769900 -12.337200 -0.217200 -4.045400 11.453200 -8.181500 9.824500 10.371400 -30.585200 43.091300 0.000000 0.000100 93.274600 74.493600 14.031600 -28.841700 0.000000 0.000000 0.000000 0.000000 0.000000 0.000000 2.266400 6.792000 -9.523000 5.876900 36.939400 -5.584900 -0.000100 -0.000100 -110.304000 59.907500 -24.743000 12.371400 0.000000 0.000000 0.000000 0.000000 0.000000 0.000000 2.311800 -1.232500 -13.592600 27.556000 0.000000 0.000000 -6.497200 -6.977700 -5.103800 -28.856200 0.000000 0.000000 -22.103200 -2.512500 15.132800 29.211900 0.000000 0.000000 -11.314800 -1.763800 8.502400 -23.463800 0.000000 0.000000 
0.145428 -0.441609 0.795795 1.493700 -5.840500 -94.539600 0.330000 -1.779300 0.605100 0.142100 -0.835000 0.150200 2.192400 0.790700 2.717000 0.735300 0.080800 0.762400 -14.429200 1.463800 -0.644900 -12.019900 0.146600 -4.338000 10.190100 -9.535900 11.294300 11.870300 -29.980100 46.028000 0.000000 0.000100 88.415000 74.050600 16.975900 -28.764500 0.000000 0.000000 0.000000 0.000000 0.000000 0.000000 1.842300 7.219100 -9.309400 3.013100 34.407300 -1.833300 -0.000100 -0.000100 -111.379600 55.052100 -24.714300 11.172300 0.000000 0.000000 0.000000 0.000000 0.000000 0.000000 1.213900 -0.416600 -12.817700 29.761100 0.000000 0.000000 -5.707100 -7.066100 -5.259300 -29.886800 0.000000 0.000000 -19.277300 -1.347300 14.649800 26.158900 0.000000 0.000000 -12.944400 -2.170600 8.613400 -21.274400 0.000000 0.000000 
0.136746 -0.446143 0.796069 0.351500 -5.960400 -94.832400 -0.208400 -1.072000 0.446600 -0.351000 -0.800600 0.133900 2.364000 0.573100 3.020900 0.837500 0.000900 0.977500 -14.367500 1.598800 -0.584600 -11.944600 0.553200 -4.349300 9.210600 -10.567500 12.559700 12.710000 -29.039000 48.222500 0.000000 0.000100 83.819500 73.263000 19.633000 -29.056500 0.000000 0.000000 0.000000 0.000000 0.000000 0.000000 1.612300 7.417500 -9.322100 0.717700 32.739100 1.218100 -0.000100 -0.000100 -112.642500 52.459700 -24.688200 10.323000 0.000000 0.000000 0.000000 0.000000 0.000000 0.000000 -0.994400 1.838200 -13.413200 34.209800 0.000000 0.000000 -3.693600 -6.836800 -5.141200 -32.874200 0.000000 0.000000 -16.377200 0.849200 14.490300 21.548900 0.000000 0.000000 -13.076200 -2.692600 9.500600 -18.941600 0.000000 0.000000 
0.125872 -0.452633 0.796605 -1.411000 -5.490000 -94.839300 -0.379500 0.017500 0.327200 -0.503500 -0.539100 0.131200 2.478500 0.512100 2.856000 0.852800 -0.000900 0.972200 -14.431000 1.376200 -0.652800 -11.689400 0.830200 -4.077800 8.748200 -10.741500 13.602700 12.641300 -28.479300 49.600300 0.000000 0.000100 80.367500 71.303400 21.438100 -29.546100 0.000000 0.000000 0.000000 0.000000 0.000000 0.000000 1.836700 6.874200 -9.507900 -0.840300 32.506900 3.147900 -0.000100 -0.000100 -114.137100 51.789100 -24.417800 10.095300 0.000000 0.000000 0.000000 0.000000 0.000000 0.000000 -3.913100 5.474000 -14.749700 40.805800 0.000000 0.000000 1.068100 -5.969600 -4.716300 -37.826800 0.000000 0.000000 -13.322100 3.520200 15.674000 17.463700 0.000000 0.000000 -12.171500 -2.141400 9.259800 -17.775700 0.000000 0.000000 
0.113838 -0.459039 0.796793 -3.103500 -4.400800 -94.561200 -0.062400 1.094600 0.198400 -0.214300 -0.241000 0.138900 2.486100 0.546900 2.394800 0.774100 0.046100 0.823100 -14.453000 0.981500 -0.837700 -11.495300 0.978500 -3.607200 8.356800 -10.183600 14.187000 11.920800 -28.351700 50.017800 0.000000 0.000100 78.459200 68.136700 22.235200 -29.811200 0.000000 0.000000 0.000000 0.000000 0.000000 0.000000 2.250100 5.740200 -9.749400 -0.870400 33.464700 3.402600 -0.000100 -0.000100 -115.806300 52.421800 -23.758800 10.528400 0.000000 0.000000 0.000000 0.000000 0.000000 0.000000 -7.331200 9.060200 -15.021200 48.481400 0.000000 0.000000 6.832700 -4.663200 -5.876400 -38.699700 0.000000 0.000000 -10.018800 5.840700 18.623800 14.586200 0.000000 0.000000 -11.331400 -0.948800 6.666800 -17.103200 0.000000 0.000000 
0.101968 -0.464238 0.795785 -4.153100 -3.187500 -94.058400 0.557600 1.789000 0.030400 0.250500 -0.046800 0.127000 2.344300 0.460100 1.775400 0.694400 0.087600 0.644300 -14.203800 0.718800 -0.965700 -11.931500 1.073400 -3.138300 7.863800 -9.697400 14.218000 10.490500 -27.755500 49.252400 0.000000 0.000100 77.850900 64.964700 22.098000 -29.713100 0.000000 0.000000 0.000000 0.000000 0.000000 0.000000 2.394300 4.872600 -10.134700 1.138900 34.750400 1.912900 -0.000100 -0.000100 -117.508100 53.796300 -22.428900 11.170900 0.000000 0.000000 0.000000 0.000000 0.000000 0.000000 -11.516700 11.267800 -13.822100 55.986500 0.000000 0.000000 8.689100 -3.947200 -10.076400 -33.038800 0.000000 0.000000 -6.764600 7.487400 21.678200 12.384900 0.000000 0.000000 -11.109900 -0.475600 3.332000 -15.870000 0.000000 0.000000 
0.090233 -0.468384 0.794113 -4.612100 -2.258600 -93.602600 1.098400 2.133000 -0.158900 0.574700 0.041900 0.086700 2.261300 0.188100 1.098700 0.706400 0.092700 0.478900 -13.894400 0.566500 -0.871700 -12.712400 1.157300 -2.698700 7.653200 -9.871900 13.971800 8.110400 -26.073500 47.346500 0.000000 0.000100 78.038800 63.143900 21.158500 -29.360000 0.000000 0.000000 0.000000 0.000000 0.000000 0.000000 2.304100 4.770700 -10.648600 4.856400 36.133600 -1.144200 -0.000100 -0.000100 -118.828500 55.886500 -20.457100 11.733400 0.000000 0.000000 0.000000 0.000000 0.000000 0.000000 -16.524800 12.027200 -12.024700 61.844900 0.000000 0.000000 4.677800 -2.751300 -15.620700 -27.824400 0.000000 0.000000 -3.977000 8.680600 22.897100 10.465900 0.000000 0.000000 -11.332000 -0.837400 1.677000 -14.358000 0.000000 0.000000 
0.076708 -0.471493 0.793064 -4.750700 -1.367000 -93.432400 1.437400 2.330000 -0.344100 0.756700 0.073000 0.026200 2.502500 -0.097300 0.391700 0.786500 0.073500 0.308100 -13.789000 0.111900 -0.658100 -13.028000 1.295500 -1.976200 7.878300 -10.396900 13.705500 5.181700 -24.029500 44.774200 0.000000 0.000100 78.616100 62.780400 19.836400 -28.870800 0.000000 0.000000 0.000000 0.000000 0.000000 0.000000 2.375700 4.888700 -11.077600 9.767100 38.386800 -5.869000 -0.000100 -0.000100 -119.049100 59.184200 -18.333600 12.464800 0.000000 0.000000 0.000000 0.000000 0.000000 0.000000 -21.232300 11.777600 -10.395200 64.223700 0.000000 0.000000 -1.536500 -0.393500 -18.289400 -26.145800 0.000000 0.000000 -1.266400 9.550700 22.545500 8.781600 0.000000 0.000000 -11.459500 -1.097200 1.719200 -12.832800 0.000000 0.000000 
0.060302 -0.473197 0.792569 -4.631000 -0.189300 -93.472100 1.755200 2.410300 -0.530000 0.998800 0.132700 -0.026900 2.912000 -0.308700 -0.438000 0.832500 0.058200 0.109200 -13.649800 -0.900100 -0.554700 -12.916300 1.566300 -0.709600 8.069300 -10.662500 13.335000 2.590500 -22.651400 42.023500 0.000000 0.000100 79.269800 62.839500 18.723800 -28.337900 0.000000 0.000000 0.000000 0.000000 0.000000 0.000000 2.648100 4.584500 -11.368700 15.604200 41.840000 -12.347400 -0.000100 -0.000100 -117.660300 63.529900 -16.250500 13.688900 0.000000 0.000000 0.000000 0.000000 0.000000 0.000000 -24.461400 10.685500 -9.084200 62.504400 0.000000 0.000000 -6.084700 0.493100 -16.273800 -27.349900 0.000000 0.000000 1.932600 9.986000 22.409400 7.233900 0.000000 0.000000 -11.502900 -0.838100 1.554100 -10.225600 0.000000 0.000000 
0.042448 -0.473725 0.791385 -4.365900 0.982100 -93.485400 2.145500 2.439400 -0.715400 1.327100 0.253200 -0.072100 3.054400 -0.524800 -1.450500 0.799600 0.059200 -0.134500 -13.189500 -2.177600 -0.532000 -13.100800 1.874200 0.877000 7.787500 -10.641000 12.787300 0.795600 -21.894000 39.243600 0.000000 0.000100 79.787300 62.623100 18.124000 -27.510500 0.000000 0.000000 0.000000 0.000000 0.000000 0.000000 2.823100 4.101900 -11.644300 21.792900 45.550700 -19.961900 -0.000100 -0.000100 -114.707300 67.768500 -14.182500 15.424800 0.000000 0.000000 0.000000 0.000000 0.000000 0.000000 -26.444200 9.090900 -8.119700 57.475400 0.000000 0.000000 -8.470400 -0.672000 -12.537300 -28.146100 0.000000 0.000000 5.106700 10.097600 22.662600 6.034000 0.000000 0.000000 -11.878300 -0.628600 0.986400 -6.186200 0.000000 0.000000 
0.024254 -0.473621 0.789368 -4.196900 1.875300 -93.444700 2.550200 2.554400 -0.836100 1.617700 0.416900 -0.131100 2.916400 -0.784800 -2.511500 0.747100 0.075100 -0.421900 -12.759800 -3.240200 -0.321900 -13.556500 2.012900 2.258700 7.342800 -10.656100 12.227200 -0.501100 -21.063900 36.528200 0.000000 0.000100 80.162400 62.627500 17.992100 -25.977500 0.000000 0.000000 0.000000 0.000000 0.000000 0.000000 2.770700 3.964200 -11.834200 27.330200 48.446700 -27.671800 -0.000100 -0.000100 -110.222200 71.284400 -13.229600 17.267800 0.000000 0.000000 0.000000 0.000000 0.000000 0.000000 -27.630900 7.602100 -7.783900 49.857100 0.000000 0.000000 -10.315700 -2.103700 -10.237800 -27.923700 0.000000 0.000000 7.510800 10.140000 22.222200 5.820900 0.000000 0.000000 -12.689000 -0.775900 1.428300 -2.823000 0.000000 0.000000 
